<?xml version="1.0" standalone="no"?>
<!DOCTYPE svg PUBLIC "-//W3C//DTD SVG 20010904//EN"
 "http://www.w3.org/TR/2001/REC-SVG-20010904/DTD/svg10.dtd">
<svg version="1.0" xmlns="http://www.w3.org/2000/svg"
 width="177.000000pt" height="177.000000pt" viewBox="0 0 177.000000 177.000000"
 preserveAspectRatio="xMidYMid meet">
<metadata>
Created by potrace 1.14, written by Peter Selinger 2001-2017
</metadata>
<g transform="translate(0.000000,177.000000) scale(0.100000,-0.100000)"
fill="#000000" stroke="none">
<path d="M774 1550 c-128 -62 -240 -91 -374 -96 -181 -7 -191 -21 -186 -240 3
-82 7 -169 11 -194 71 -491 259 -756 587 -827 72 -15 81 -15 150 1 286 69 472
292 554 668 27 124 48 415 36 497 -5 36 -41 78 -73 86 -13 3 -67 7 -119 10
-52 2 -104 6 -115 8 -11 3 -33 8 -50 12 -48 11 -165 56 -227 86 -32 16 -70 29
-85 29 -15 -1 -64 -18 -109 -40z m201 -149 c106 -46 233 -79 330 -87 102 -9
107 -16 104 -139 -2 -55 -6 -118 -10 -140 -4 -22 -10 -62 -14 -90 -3 -27 -18
-90 -32 -140 -69 -244 -199 -401 -375 -456 -66 -21 -92 -18 -108 10 -31 59
-93 341 -105 481 -23 267 -26 510 -5 535 11 14 99 61 120 64 3 1 46 -16 95
-38z"/>
</g>
</svg>
